/* XPM */
static char *_b0cb40f631243d6a052f003f39c31c43rxGDxViFz9pXESk[] = {
/* columns rows colors chars-per-pixel */
"41 40 191 2 ",
"   c #454032",
".  c #4B473A",
"X  c #4F493B",
"o  c #544F42",
"O  c #555245",
"+  c #595546",
"@  c #56554B",
"#  c #5B5649",
"$  c #5D594B",
"%  c #5F5E53",
"&  c #605C47",
"*  c #615E4E",
"=  c #615F52",
"-  c #65614E",
";  c #7E6F4A",
":  c #646154",
">  c #686355",
",  c #696659",
"<  c #6B695C",
"1  c #716C5E",
"2  c #727163",
"3  c #787364",
"4  c #767569",
"5  c #797669",
"6  c #77786D",
"7  c #7B796C",
"8  c #7D7D72",
"9  c #817D6E",
"0  c #817E72",
"q  c #7F8176",
"w  c #7F837A",
"e  c #DBA511",
"r  c #DBA816",
"t  c #E3A50F",
"y  c #E3A90F",
"u  c #E6B90F",
"i  c #F6BE0F",
"p  c #E3A612",
"a  c #E3AD12",
"s  c #E9AD12",
"d  c #E4B212",
"f  c #EDB313",
"g  c #E7BC12",
"h  c #ECBB13",
"j  c #EFBD19",
"k  c #F1B614",
"l  c #F6BE14",
"z  c #F8BF14",
"x  c #F6BE19",
"c  c #F9BF18",
"v  c #C49D3F",
"b  c #D0AA39",
"n  c #E1AD24",
"m  c #EBB424",
"M  c #F0BB20",
"N  c #FADD0F",
"B  c #EDC214",
"V  c #F6C114",
"C  c #FCC414",
"Z  c #F4CA13",
"A  c #FBCA15",
"S  c #F6C31B",
"D  c #FBC61B",
"F  c #F7C81D",
"G  c #FBCA1C",
"H  c #F5D313",
"J  c #FCD414",
"K  c #FBDB14",
"L  c #FAD41D",
"P  c #F6DA1B",
"I  c #FBDC1B",
"U  c #FCE213",
"Y  c #FBE21B",
"T  c #D7C03C",
"R  c #ECC624",
"E  c #F6C523",
"W  c #F8C425",
"Q  c #F6C924",
"!  c #FACC24",
"~  c #F7CB2B",
"^  c #F9CD2B",
"/  c #EFDA28",
"(  c #F8D225",
")  c #FADE23",
"_  c #F4D32B",
"`  c #FAD42D",
"'  c #FADB2D",
"]  c #EBC636",
"[  c #F5C734",
"{  c #F6CF33",
"}  c #F3CB3C",
"|  c #FACF3E",
" . c #EEDA32",
".. c #ECDA3D",
"X. c #FAD434",
"o. c #FBDC32",
"O. c #F6D538",
"+. c #FAD53B",
"@. c #FBDA3C",
"#. c #FCE227",
"$. c #FDE32B",
"%. c #FCE233",
"&. c #91875D",
"*. c #A88C44",
"=. c #A89A4E",
"-. c #B79C4C",
";. c #AD9E59",
":. c #BCA441",
">. c #928B6E",
",. c #838175",
"<. c #888575",
"1. c #84857A",
"2. c #89877A",
"3. c #86897D",
"4. c #8B8A7C",
"5. c #928D7E",
"6. c #AA9F60",
"7. c #AC9F6A",
"8. c #A99D76",
"9. c #AEA266",
"0. c #B6A869",
"q. c #ABA57A",
"w. c #B6AD79",
"e. c #BDB777",
"r. c #C8A749",
"t. c #D7BA4A",
"y. c #C8A952",
"u. c #CCBC59",
"i. c #D2BC59",
"p. c #E1BF4C",
"a. c #C7BA7F",
"s. c #DDC443",
"d. c #DBCB57",
"f. c #DDC25B",
"g. c #D7C95C",
"h. c #E9C549",
"j. c #F6CE49",
"k. c #E6D547",
"l. c #F8D343",
"z. c #F8D547",
"x. c #FADC44",
"c. c #E4CB57",
"v. c #EACA57",
"b. c #F6CE50",
"n. c #F6D456",
"m. c #DAC765",
"M. c #CDC474",
"N. c #CCC17C",
"B. c #E6C963",
"V. c #E0CC75",
"C. c #F7D873",
"Z. c #FCE966",
"A. c #868B81",
"S. c #8B8E82",
"D. c #938E81",
"F. c #8D9085",
"G. c #8E9489",
"H. c #929285",
"J. c #939489",
"K. c #929589",
"L. c #9A978A",
"P. c #95998D",
"I. c #9B9A8D",
"U. c #979C92",
"Y. c #9A9E92",
"T. c #A59F83",
"R. c #A49F89",
"E. c #9CA094",
"W. c #A4A283",
"Q. c #A6A48A",
"!. c #AAA88C",
"~. c #B5AF82",
"^. c #B7AE85",
"/. c #A6A495",
"(. c #AEAC9A",
"). c #BBB494",
"_. c #C9BC83",
"`. c #CFC287",
"'. c #D5C884",
"]. c #F6DE91",
"[. c #F9E589",
"{. c #F7E69A",
"}. c #F9E39B",
"|. c #F9EBA8",
" X c #F6ECC6",
".X c #F9F6D0",
"XX c #FBF5DC",
"oX c #F9F7E5",
"OX c #FBFAEC",
"+X c #FBFBF4",
"@X c #FBFDFB",
/* pixels */
"K.3.S.A.1 = * , 3 4.0 3 <.<.7 5 5 2.<.K.2., o 1 5 1 , : < <.4.F.K.G.5 . 2 K.P.E.S.",
"8 1.0 0 5 5 1 <.<.9 9 9 S.,./.).`.V.B.B.c.f.m.a._.(.I.3.2 G.G.K.G.G.S.7 7 <.2.H.4 ",
"S.4.D.2.0 0 8 7 0 3 * 1 R.'.j.~ D C C C C J U K F [ c.N.T.1.Y.4.<.8 4.G.K.7 S.S.5 ",
"K.J.I.5.0 4.2.2.9 3 > 9.} ! C C C C C C J U K A D J U N  .M./.4.8 4.3.5 7 ,.D.< : ",
"A.I.L.D.L.D.D.0 8 8.t.D C C C C z k f f g h h k Z U U U U U ..~.8 1.A.1.5 * = O 2 ",
"2.I.D.D.D.4.3 = 9.R z C C l f p s s f k k k k k f h Z K U U U I g.$ $ $ O : * , <.",
"0 D.L.L.L.D.0 ;.E C C C s p s k x z l z V z z V l x h h Z K U Y Y i., 2 < 4.1 A.F.",
"5 4 2 7 < @ =.W C C k p s k z V z l z V V V z z z z l z l Z K U J D i.0 8 <.0 1.4.",
"5 D.3.2.4.0.Q C C f p k l l V l z z z S E S z l l z l V z l V F C A K e.S.A.<.A.7 ",
"0 H.J.D.5 m C C f p k z V l z l l l z ` ! h l z z z l z l l V V D K U / W.,.G.0 8 ",
", 5 S.2.:.C C k t k z z l l l S x z S ` H d k V z z z l l l z l D Y U K T 1.1.A.1.",
"# 9 7 w.D C z p k z z z l V j B.] l S ' K r l z l z l l V l z l V ( U K A 7.5 0 , ",
"S.J.9 t.C D s s z z V l l S j. X].l.{ ' K R ( ` ^ F z z z V z z l G ( A A s.A.S.S.",
"S.,.w.D C x p z l z l V z [ {.OX.XZ.) U K I K Y I d h V z z z z l z Q G J U q.S.K.",
"5 <.v.C C s f l z z V z z z l.|.n.h g g g h g g u e k V z z V z z z E ) U U u.K.A.",
"7 D.~ C l y k z z l z l z F X.O.n y f f h f f f f k l V l V l z z z S o.U U _ 0 7 ",
"0 _.C C k s z z V l V l V ~ #.Z e V V V z z z l l V l z l z l V z l l ` Y U K >.2 ",
"4 m.C C f f z z z z z l l Q I Z u l z z l z l z l l z V V z z z l l l ~ #.U K &.1 ",
"A.B.C C s k i z z z l l l S I K A S z z z l V V l l l l z V l V l l z Q $.U U 6.3.",
"0 h.C C f k z z z z l l z S L I K I ` ` X.^ ` ( F l l l l z l z l z z Q %.U J y.,.",
"& p.C J f x k z z z l l l V V H K U K J D A K I I F x V z V z z l l z E ' J C v * ",
"= v.J K g z z z l V z V z z S V Z Z Z l V Z Z K K A k z l l V l z z x Q ' C C *.X ",
", c.U K f k V z V l z l z V z V x k h k k k k V C A h k z l z z z z z ^ ` C C ; O ",
"1 d.N A f x z l z z z V z z z l z z z z V z S V E I B f z l z l z z z X.^ C C > : ",
"8 N.A C V h l l z l z l l V z l l z l z z z z z ` Y h f V l l l V i V x.! C k ,.q ",
"A.^.V J K f l z V z V z z z V V V z z S S V V Q o.I r f V l V z l V Q x.C C m 8 3.",
",.Q.` U U h l z z l z V l l Q X.X.' ' X.^ ` o.o.I g e l V z S z l k +.X.C C y.A.,.",
"8 7 g.U U H h V V z l l z z ` P P K J A A H U H g e h z z W j.z l E x.! C i 3.A.2 ",
"% < ~.Y U U B z l l l l z l S g d d a E H g d e p f x z l j.}.x z +.+.C C -.7 3 - ",
"q 5.1.k.U U H l x l l l l z x k h k j ' K a f k z z z z x {.oXn.^ x.D C V - + .   ",
"O q 4.~.Y U U Z z z V z z z z l z z V ' N d l l l S M | ].OX@XXX[.+.C A ,.. O + : ",
"5 : , 2 g.U U U Z l z l z V z V l z S ( B e k l l S n.|.+X+X+X@XXX[.+.r.S., : # 4 ",
"F.3.F.q q ..U J C A S z z l V l z V l h a f l z l l l R C.oX@X Xz.W x Y.S.2 6 q G.",
"w 3.3.q w Q. .Z A K I F z l z z z l z l l l z z l l z V +.{.XXj.C z Y.U.3.$ w 3.S.",
"w 1.w w w A.!.] K U U I ( E z l z z l V l z z z l E { x.+.l.[.D x Y.Y.P.@ O 6 8 w ",
"F.3.q w A.w w !.k.U N K A ! ` ` Q E S S V S Q ^ +.x.@.^ C D l.b P.K.8 : @ , 2 8 6 ",
"6 4 : 4 4 < : : 4.g.L A C K U Y #.%.%.@.@.x.@.X.^ F C C C c * X o # - > < : : O , ",
"2 q q q 6 < 3.3.F.L.~.p.H U U U U U U U J C C C C C z c 7.P.A.< 4 G.K.P.J.Y.2 7 6 ",
"1.3.F.F.w < w w A.S., 3 w.d._ P U U U J C D C S V M t._.(.2 5 , P.H.5.G.H.F.4.7 3.",
"3.1.F.w q * w F.F.F.2 = 5 H.q.0.t.G Z k z k f n r.8.0 ,.4 8 A.= K.H.K.5.S.J.I.4 7 "
};
