/* XPM */
static char *_7893_49f77243efda80326bbcd8b507e5d5b05d9530552a2f36b98ebada1546c4d9e8[] = {
/* columns rows colors chars-per-pixel */
"50 50 231 2 ",
"   c #260D1C",
".  c #240C28",
"X  c #281129",
"o  c #351925",
"O  c #240E32",
"+  c #2B0F31",
"@  c #2B1233",
"#  c #271139",
"$  c #281238",
"%  c #371632",
"&  c #3C2230",
"*  c #4A171C",
"=  c #55171D",
"-  c #711C1B",
";  c #54241B",
":  c #692D1C",
">  c #69331B",
",  c #471A25",
"<  c #551C22",
"1  c #4D1C33",
"2  c #661D22",
"3  c #4B2128",
"4  c #532424",
"5  c #5D2C22",
"6  c #592429",
"7  c #542929",
"8  c #5E3129",
"9  c #492938",
"0  c #5B2A31",
"q  c #453935",
"w  c #583438",
"e  c #682328",
"r  c #792628",
"t  c #66362A",
"y  c #773726",
"u  c #682734",
"i  c #7F2E32",
"p  c #693C32",
"a  c #49422E",
"s  c #494638",
"d  c #4E4A3D",
"f  c #534D3D",
"g  c #6B4137",
"h  c #7A4E30",
"j  c #774B38",
"k  c #4C3343",
"l  c #563A44",
"z  c #643A40",
"x  c #4E4B40",
"c  c #544E42",
"v  c #5B464B",
"b  c #555244",
"n  c #5A5545",
"m  c #5A5847",
"M  c #5A5649",
"N  c #5D5A4C",
"B  c #5F5E54",
"V  c #674846",
"C  c #615D4D",
"Z  c #77564B",
"A  c #6B5456",
"S  c #625F53",
"D  c #755755",
"F  c #67624F",
"G  c #646154",
"H  c #696455",
"J  c #6A6757",
"K  c #656358",
"L  c #6B695C",
"P  c #726659",
"I  c #716C5D",
"U  c #75715F",
"Y  c #6D6C61",
"T  c #706D61",
"R  c #796769",
"E  c #747163",
"W  c #797565",
"Q  c #7E7966",
"!  c #757469",
"~  c #797669",
"^  c #7C796C",
"/  c #7D7D72",
"(  c #8B221E",
")  c #872C2B",
"_  c #982B25",
"`  c #843D2A",
"'  c #96352D",
"]  c #8B3332",
"[  c #993331",
"{  c #A7352A",
"}  c #A6392B",
"|  c #B63A2C",
" . c #A43B36",
".. c #AB3B34",
"X. c #B73C31",
"o. c #C33E32",
"O. c #86422A",
"+. c #9A492C",
"@. c #874536",
"#. c #954B36",
"$. c #885A3B",
"%. c #A8502E",
"&. c #B2423B",
"*. c #BC443A",
"=. c #A95332",
"-. c #90623F",
";. c #C9473A",
":. c #C44A3E",
">. c #D84C3C",
",. c #EE4C35",
"<. c #E54D3A",
"1. c #EC4E3A",
"2. c #F14733",
"3. c #F14C35",
"4. c #F24F38",
"5. c #E5523C",
"6. c #EC513D",
"7. c #F15037",
"8. c #F2523A",
"9. c #884141",
"0. c #875847",
"q. c #965941",
"w. c #895C57",
"e. c #8A6349",
"r. c #96684B",
"t. c #876453",
"y. c #9A6C58",
"u. c #9F7457",
"i. c #A26D52",
"p. c #A57759",
"a. c #B37959",
"s. c #89666C",
"d. c #857668",
"f. c #817C6C",
"g. c #977669",
"h. c #8A7670",
"j. c #817E71",
"k. c #977A70",
"l. c #A27E63",
"z. c #C64C41",
"x. c #CE4F42",
"c. c #DD5342",
"v. c #D85644",
"b. c #E45542",
"n. c #EC5541",
"m. c #E85944",
"M. c #F25741",
"N. c #D36959",
"B. c #E16654",
"V. c #CD776B",
"C. c #D97364",
"Z. c #EA7A6A",
"A. c #7F8175",
"S. c #7F8279",
"D. c #AC835C",
"F. c #84826C",
"G. c #838274",
"H. c #898574",
"J. c #84857A",
"K. c #89867A",
"L. c #86887D",
"P. c #8B8A7D",
"I. c #928D7D",
"U. c #96927E",
"Y. c #AC8167",
"T. c #B78C6A",
"R. c #AB8976",
"E. c #BA9274",
"W. c #B6957A",
"Q. c #CF9074",
"!. c #C59975",
"~. c #E78A7B",
"^. c #CBA47C",
"/. c #D1A87D",
"(. c #DBB17F",
"). c #8A7B80",
"_. c #868B81",
"`. c #8C8D82",
"'. c #928E82",
"]. c #998988",
"[. c #8E9185",
"{. c #8E9389",
"}. c #929285",
"|. c #999587",
" X c #93958A",
".X c #96998D",
"XX c #9A9B8D",
"oX c #989892",
"OX c #9B9D91",
"+X c #A29F8A",
"@X c #B99A84",
"#X c #A59B97",
"$X c #9EA196",
"%X c #9EA499",
"&X c #A1A39A",
"*X c #A5A499",
"=X c #AAA7A3",
"-X c #B6B6B0",
";X c #D29989",
":X c #EA9789",
">X c #E8978A",
",X c #E69D93",
"<X c #CCA98B",
"1X c #D7AD86",
"2X c #DAB48B",
"3X c #DBB796",
"4X c #E3B88C",
"5X c #E4BE93",
"6X c #C0BAB5",
"7X c #EEB7AF",
"8X c #EAC394",
"9X c #E9C59A",
"0X c #F1C896",
"qX c #F2CC9B",
"wX c #FBD595",
"eX c #F5D39D",
"rX c #FCD49C",
"tX c #FCDA9B",
"yX c #FBD6A3",
"uX c #FFDBA3",
"iX c #F8D6A9",
"pX c #EDC1BA",
"aX c #F1CAB1",
"sX c #FFE0A2",
"dX c #E8C9C4",
"fX c #EBD1CD",
"gX c #EADBD7",
"hX c #F3DBD7",
"jX c #F0E1DE",
"kX c #E8E9E8",
"lX c #F0E4E0",
/* pixels */
"[.L._.{._./ G _./ ! j.[.^ T '.P.j.~ T W Q T j.K._.J [.^ s & f L.[.G.L ! Y ^ Q L ~ J.U U J E C m G .X",
"[.P.J.J.^ K G N I E ~ J.j.W H.P.H.j.W Q Q j.T J.`.M M d ^ W A.A.J I U [.P.}.[..X[.{.G s J }.{..X.XJ.",
"/ L./ G.j./ ^ H d.K.j.j.Q W P.P.K.'.K.j.j.P.K J.K.c ! W F.A.U.{.}.P.E }.}. X[. X[.}.P.^ ^ K.J.[.[.I ",
"`.J.`.'.P.j.K.j.T j.j.~ H N j.I.'.J.`.'.P.'.T K.'.c '.|.H.H.J.P.P.f.G.^ .X.X[.P./ A.[..X[.A.P.[. XW ",
"}.}.XX|.K.~ / j.'.K.j.~ H x Q G.J.K.`.`.P.P.L J.[.H J.L.F.F.J.J.! L.G.G.L..XL.! J.[.^ A.[.J.L.P.J J ",
"P.}.#X].'.'.'.].K.j.^ ~ S d W f.j.j.J.j.9 < < 6 0 6 t 0 t 0 6 6 1 R ^ F.J.'.J.G.J.[.`.^ ^ E G.I N I ",
"H.OXXX'.'.'.'.|.K.~ j.~ E W J.G.f.J v , r &.z.:.:.z.x.z.:.:.:.:.[ < w G.! ^ ~ ~ A.^ J.G.K f C d G E ",
"K.|.|.I.'.'.I.T K S N Q P.I.d.E H 9 = ) x.n.4.3.4.8.8.8.8.8.8.7.<.X.r , R E S W F n n f b J G F A.L.",
"j.'.|.}. X|.|.j.T Y T W E C c P 3 2 ..b.4.4.4.2.2.7.7.,.8.8.7.3.3.,.>.] = 9 L.J./ T S T L H.L T L.P.",
"G.! j.^ G.! L K S T T S S G ~ , r ;.6.7.,.4.3.3.2.4.7.7.8.,.3.3.7.7.6.5.&.e , OXJ.K./ J.j._./ K.P.P.",
"T ! K.K ~ L.~ c ^ j.`.XX/ R <  .c.4.,.2.2.4.,.1.5.b.5.b.m.5.1.7.8.7.7.7.5.;.) * #Xf.J.j.j.J.E / A.A.",
"G.j..X.X|.G.^ J.|.'.'.j.V e :.n.8.2.4.3.,.1.B.7XpX7XpXpXpXpX:Xm.8.8.8.8.4.8.c. ., ].`.{. X[.`.}.H.A.",
"K.j. X}.j.b G.&X|.J.E c , &.M.8.4.4.4.4.5.B.7XkXgXhXkXjXfXkXjX~.5.4.8.8.8.8.M.b.) 9 |.j.^ / _.L.J.A.",
"L S P.I.^ M '.&X'.~ M M e x.M.4.,.4.4.,.b.,XjXlX,XQ.pX,XV.pXkXfXC.,.,.8.8.8.4.1. ., -XT ! L.S._.L.L.",
"d L K.S `.T ^ P.^ S c A r b.8.4.8.8.7.,.Z.gXkX7XN.v.B.m.v.>XlXkX7X6.,.4.6.4.4.,.o., =XT ! ! E ^ W m ",
"G._._.Q P.S j.K.I.T S 1 [ 1.4.8.8.8.8.<.Z.jXgX~.C.,XN.~.:XN.aXkXpXm.4.3.,.4.3.4.c.2 ].K.G.j.`.`.J.A.",
"}.`./ U H.H K.I.G.j.j.* &.4.2.4.2.3.7.7.B.dXdXV.7XhXgXgXgXV.;XjX,X5.4.4.8.8.4.8.6.i A $X{.`.J._.[. X",
"J.J.XX*X+XE G.G.j.L.k.2 x.8.2.3.4.2.1.8.v.,XhXdXgXkXkXkXkXfXgXhXC.M.8.8.,.8.8.8.8.&.7 -X.X{./ '.{.[.",
"! ^ P.`.I.L H d L E R r c.2.4.4.8.8.c.{ ) ] s.s.s.s.s.s.s.s.s.w.] ) *.5.8.7.7.3.,.:.* -XL.A.^ P.[.H.",
"^ / G.G.F.G C I j.^ A [ 4.2.2.2.6.>.) (  .| .... ...............X._ - ..b.8.4.8.4.>.2 =X/ ^ ^ G.^ A.",
"G.^ G.P.I C H.I.|.+Xw &.4.4.4.n.;.( _ >.6.7.4.4.4.8.4.4.2.2.4.4.8.n.&.( { c.8.8.4.<.i ).^ R ^ G.~ E ",
"~ ^ j.Q s I U.U.U.+XR ' 1.4.1.o.( X.5.,.6.m.n.8.,.6.n.n.n.1.1.n.M.4.4.>._ _ >.4.8.x.2 =XT n H C J A.",
"E A.! N b U G.f.G.I.j.e z.b.| _ ;.6.6.>.} } } { { { { { {  .{ { { | >.n.<.| _ c.m.[ z `.K I P H E T ",
"A.J.J.^ F P Q d.Q E J z e e 2 :.>.o.' @.i.i.i.i.i.i.i.i.i.i.i.p.i.-.] { ;.v.[ 2 ) < #X_.J.K.G.E _.P.",
"A.G.A.J F J U F n f H p , < < i ' -.!.8XiX<Xh.9XyXyXuXyXyXuX@Xk.aXeX1XD.#.#.: = , , D 6X&X`.XX~ / A.",
"N c F J F J U ^ Q P Z g.5 #.y j 5XeXwXtXiXV   W.wXwXwXwXwXrXD   R.uXtXtXqX!.5 @.@.p Y.p ].J.T C n m ",
"b U.U.F.}.H.U I. XP 2XY.: =.+.j 8XrXwXwX9Xl X W.rXwXtXwXtXeXA . k.tXwXwXyX^.t %.+.y 2X!.Z `.M c m b ",
"I |.|.^ F.F.F.}.}.t.qXp.: =.%.: T.tXwXwX5Xl X @XuX0X(.4XrXyXA   k.tXwXwXqX$.y =.+.t 2X2Xg =X_.! f b ",
"a s s m J F F a P r.yXT.> =.=.` h eXwXwXqXA & R.D.-.e.$.r.!.t.o W.tXwXtX2X> +.=.+.y 8X8Xt -X/ S.M d ",
"E A.F.}.P.G.A.Q h.p.uX<X> %.+.y $.rXwXwXtX2Xg j D./.qX8XE.r.p y.eXtXtXtX8X> O.+.%.$.tX0Xj =Xx b J L ",
"A.S.A.A.A.J.H.A.P.t.wX4X> #.> ; p.rXwXwXwX/.j 2XsXsXtXtXsXyXD.0.eXrXwXtXqXh ; O.O.-.uX2XV W d E f.j.",
"J.A.! E P.H.G.A.Q j 4X0Xr.t 5 E.9XrXwXwXeXr.u.sXtXtXtXtXtXtX8Xh ^.tXwXtXeX5Xr.; t !.tXT.d.'.K.J.j._.",
"J.J.E ^ F./ G.G U V E.tX!.* j qXY.g.5XuX0Xh ^.uXwXtXtXtXtXtXyXe.D.uXyX<X0.2X<X4 8 8XrXk. X_.j.`.A.A.",
"J.^ A.^ W L G T U F.d.F.d.4 Z qXV . x R.5Xt.u.uXtXtXwXtXtXuXqXj E.3Xd.& . @X1X5 t R.d.W ^ J._.`.S.^ ",
"Y G F J H C Q ^ F C f F ~ G.g W.l O O @ k 9 p 1XeXsXtXsXyX0Xl.7 k 9 . O + k.r.7 P.G.S.J.j.[._._.S.E ",
"B K Q K.L.{.H.G.W E f P.`.K.G.Z R X O O O O 9 u Z T.2X^.p.j 0 1 O O O O 9 k.5 #X! _.OX{._./ / T F B ",
"A.[.P.F.^ H.I.[.`.T C `.H.^ T V R.D l % # $ % % 3 4 p 0 3 , % @ $ $ k v R.0.8 P.T W j./ Y S n M d q ",
"x P.[. XA.G.^ ^ I J d.J.P.j.T 8 0.9XaXg.O # # O X % 1 % % O + # # % @XaX;X5 ].^ P.j.J.J.! M c d f m ",
"J m B L U E E J I d.^ ^ j.Y S T t !.uX2Xq . + @ @ $ @ $ # @ % O X V 9XrX$.; F.P..X X{. X`.H c M m E ",
"{.^ W L W L.[.^ [.}.j.d.j.T C C , 0.0XyX3Xg.w 3 % + + + + 1 0 D R.9XiX!.4 R G.~ .XL.j. X[.W T S m L.",
"{._._._./ A._.L.L.J..X.X_.S.S.L.J.4 0.4XuXuXT.e u u u u u e y 8XuXrXE.t 4 OX%X.X_.`.{.%X`.Y / ~ L.{.",
"S.S.S._.A.S.L.A.A.L._.S.^ / / J.! j.< p !.rX8Xq.' x.v.x.&.y E.rX8Xy.; z }.OX.X&X&XOX%XOXL.M _.A.L.{.",
"S.L.S.S.S.S._.J.L.J._./ Y / L.L./ K.T 0 e p.0X0Xa.@.[ #.#./.yX1X@.4 d.A.+XOX$X X XOX%X{.B d T A.S.S.",
"[.{.L./ S._.J.J._.L.S._.G ~ T E T ^ Q S U ; 9.u.y.0.0.0.w.i.y.t 4 *XC E A. XOX%X&XXX[.T b K B _.L._.",
"L.S.A.E S.S./ L Y ! ! E T j.L ~ J.W c C T #Xw 7 6 7 7 7 7 7 7 D -XP.G.f.J d K E T L G f N N m T K I ",
"S J m m L L m K ! Y ! G.j.P.`.K.K.K.E P. X`.#X[._.=X=X&X%X! L.`.`.^ J. X$XY d b K E ! J.F.A.M m f N ",
"E A.{.S.L./ Y {._.{.oX[.j.j.K.`.P.`.'.}.'.P.K.S K K._._..XB K A.J.J. X{.{._.L ~ XX.XXX.XXX&X.XY P.A.",
"S.[.{._._.L.Y S.S._.[.`.^ M C j.K.P.j.I C c c N ^ H.j._.{.B K A./  XoX! L J.B XX XI.}.[.[.[.`.A.L.P.",
"L.J.L.{.S.A.B A.{.{.S.{.A.S B U A.A.I m C N N ^ ^ L.}.[.J.d G ! ! J.J.! J.L.M XX X}.}.`.[.[..X[.W A.",
"H.A.S.P.{.S.L A.S._.{.S.S.G E U.F.J F Q ^ Q ^ A.L.}.|.[.{.q B _.[.[.L.T L E L J ^ }.[.`.P.^ x x K G."
};
